<svg width="84" height="280" viewBox="0 0 84 280" fill="none" xmlns="http://www.w3.org/2000/svg">
<g clip-path="url(#clip0)">
<path d="M66.44 16.59H0V279.66H66.44V16.59Z" fill="#333333"/>
<path d="M83.1301 0H16.5901V263.04H83.1301V0Z" fill="#333333"/>
<path d="M52.0701 64.55L27.7501 34.19V64.53H16.5901V16.59H27.9101L66.5401 64.53L52.0701 64.55Z" fill="white"/>
<path d="M66.4101 16.59H55.3501V27.65H66.4101V16.59Z" fill="white"/>
<path d="M16.6201 263.04V215.1H66.3901V224.42H27.9601V233.94H55.2301V243.26H27.9601V253.72H66.3901V263.04H16.6201Z" fill="white"/>
<path d="M16.6201 198.45V150.51L66.4401 150.49V159.81L27.9601 159.83V169.82H55.3701V179.07H27.9601V198.45H16.6201Z" fill="white"/>
<path d="M44.0001 123.77C33.0001 123.77 26.5401 116.39 26.5201 107.65C26.5001 98.91 33.0001 91.54 44.0001 91.54C46.8894 91.3998 49.7627 92.0455 52.3143 93.4084C54.8658 94.7713 57.0001 96.8005 58.4901 99.28H71.2601C67.0001 89.46 57.3401 81.5 42.5101 81.53C26.2501 81.53 14.1701 93.33 14.1101 107.6V107.71C14.1701 121.98 26.2501 133.78 42.5101 133.78C57.3401 133.78 67.0001 125.84 71.2601 116.02H58.4801C56.9922 118.5 54.8601 120.53 52.3104 121.895C49.7607 123.259 46.8888 123.907 44.0001 123.77Z" fill="white"/>
</g>
<defs>
<clipPath id="clip0">
<rect width="83.13" height="279.67" fill="white"/>
</clipPath>
</defs>
</svg>
